<mxfile host="Electron" agent="Mozilla/5.0 (Windows NT 10.0; Win64; x64) AppleWebKit/537.36 (KHTML, like Gecko) draw.io/27.0.9 Chrome/134.0.6998.205 Electron/35.4.0 Safari/537.36" version="27.0.9">
  <diagram name="Page-1" id="aAJgmiSj_5f2fC-xu13c">
    <mxGraphModel dx="1412" dy="861" grid="0" gridSize="10" guides="1" tooltips="1" connect="1" arrows="1" fold="1" page="1" pageScale="1" pageWidth="850" pageHeight="1100" background="#ffffff" math="0" shadow="1">
      <root>
        <mxCell id="0" />
        <mxCell id="1" parent="0" />
        <mxCell id="g3oZ5EdKqaqMo7e6JtPQ-5" value="&lt;p&gt;&lt;font style=&quot;color: light-dark(rgb(170, 183, 184), rgb(76, 0, 153));&quot; face=&quot;Times New Roman&quot;&gt;&lt;b&gt;AWS Cloud&lt;/b&gt;&lt;/font&gt;&lt;/p&gt;" style="outlineConnect=0;gradientColor=none;html=1;whiteSpace=wrap;fontSize=12;fontStyle=0;shape=mxgraph.aws4.group;grIcon=mxgraph.aws4.group_aws_cloud;strokeColor=light-dark(#AAB7B8,#000000);fillColor=none;verticalAlign=top;align=left;spacingLeft=30;fontColor=#AAB7B8;dashed=0;hachureGap=4;fontFamily=Architects Daughter;fontSource=https%3A%2F%2Ffonts.googleapis.com%2Fcss%3Ffamily%3DArchitects%2BDaughter;strokeWidth=4;labelBackgroundColor=none;shadow=0;" vertex="1" parent="1">
          <mxGeometry x="112" y="250.5" width="635" height="400" as="geometry" />
        </mxCell>
        <mxCell id="g3oZ5EdKqaqMo7e6JtPQ-6" value="" style="sketch=0;outlineConnect=0;fontColor=#232F3E;gradientColor=none;fillColor=#E7157B;strokeColor=none;dashed=0;verticalLabelPosition=bottom;verticalAlign=top;align=center;html=1;fontSize=12;fontStyle=0;aspect=fixed;pointerEvents=1;shape=mxgraph.aws4.event_time_based;hachureGap=4;jiggle=2;curveFitting=1;fontFamily=Architects Daughter;fontSource=https%3A%2F%2Ffonts.googleapis.com%2Fcss%3Ffamily%3DArchitects%2BDaughter;" vertex="1" parent="1">
          <mxGeometry x="140" y="391" width="78" height="78" as="geometry" />
        </mxCell>
        <mxCell id="g3oZ5EdKqaqMo7e6JtPQ-10" value="Evne" style="text;html=1;align=center;verticalAlign=middle;resizable=0;points=[];autosize=1;strokeColor=none;fillColor=none;fontFamily=Architects Daughter;fontSource=https%3A%2F%2Ffonts.googleapis.com%2Fcss%3Ffamily%3DArchitects%2BDaughter;" vertex="1" parent="1">
          <mxGeometry x="265" y="708" width="50" height="30" as="geometry" />
        </mxCell>
        <mxCell id="g3oZ5EdKqaqMo7e6JtPQ-11" value="&lt;p&gt;&lt;font style=&quot;color: light-dark(rgb(170, 183, 184), rgb(76, 0, 153));&quot; face=&quot;Times New Roman&quot;&gt;&lt;b&gt;Event TIme-Based&lt;/b&gt;&lt;/font&gt;&lt;/p&gt;" style="text;html=1;align=center;verticalAlign=middle;resizable=0;points=[];autosize=1;strokeColor=none;fillColor=none;fontFamily=Architects Daughter;fontSource=https%3A%2F%2Ffonts.googleapis.com%2Fcss%3Ffamily%3DArchitects%2BDaughter;" vertex="1" parent="1">
          <mxGeometry x="119" y="460" width="120" height="50" as="geometry" />
        </mxCell>
        <mxCell id="g3oZ5EdKqaqMo7e6JtPQ-13" value="&lt;font style=&quot;font-size: 12px; color: light-dark(rgb(170, 183, 184), rgb(76, 0, 153));&quot; face=&quot;Times New Roman&quot;&gt;Amazon EC2 (us-east-1)&lt;/font&gt;" style="sketch=0;outlineConnect=0;fontColor=#232F3E;gradientColor=none;strokeColor=#ffffff;fillColor=#232F3E;dashed=0;verticalLabelPosition=middle;verticalAlign=bottom;align=center;html=1;whiteSpace=wrap;fontSize=10;fontStyle=1;spacing=3;shape=mxgraph.aws4.productIcon;prIcon=mxgraph.aws4.ec2;hachureGap=4;jiggle=2;curveFitting=1;fontFamily=Architects Daughter;fontSource=https%3A%2F%2Ffonts.googleapis.com%2Fcss%3Ffamily%3DArchitects%2BDaughter;" vertex="1" parent="1">
          <mxGeometry x="570" y="260" width="80" height="120" as="geometry" />
        </mxCell>
        <mxCell id="g3oZ5EdKqaqMo7e6JtPQ-15" value="&lt;font style=&quot;font-size: 12px; color: light-dark(rgb(170, 183, 184), rgb(76, 0, 153));&quot; face=&quot;Times New Roman&quot;&gt;Amazon EC2 (eu-west-1)&lt;/font&gt;" style="sketch=0;outlineConnect=0;fontColor=#232F3E;gradientColor=none;strokeColor=#ffffff;fillColor=default;dashed=0;verticalLabelPosition=middle;verticalAlign=bottom;align=center;html=1;whiteSpace=wrap;fontSize=10;fontStyle=1;spacing=3;shape=mxgraph.aws4.productIcon;prIcon=mxgraph.aws4.ec2;hachureGap=4;jiggle=2;curveFitting=1;fontFamily=Architects Daughter;fontSource=https%3A%2F%2Ffonts.googleapis.com%2Fcss%3Ffamily%3DArchitects%2BDaughter;" vertex="1" parent="1">
          <mxGeometry x="570" y="391" width="80" height="119" as="geometry" />
        </mxCell>
        <mxCell id="g3oZ5EdKqaqMo7e6JtPQ-16" value="&lt;font style=&quot;font-size: 12px; color: light-dark(rgb(170, 183, 184), rgb(76, 0, 153));&quot; face=&quot;Times New Roman&quot;&gt;Amazon EC2 (eu-north-1)&lt;/font&gt;" style="sketch=0;outlineConnect=0;fontColor=#232F3E;gradientColor=none;strokeColor=#ffffff;fillColor=#232F3E;dashed=0;verticalLabelPosition=middle;verticalAlign=bottom;align=center;html=1;whiteSpace=wrap;fontSize=10;fontStyle=1;spacing=3;shape=mxgraph.aws4.productIcon;prIcon=mxgraph.aws4.ec2;hachureGap=4;jiggle=2;curveFitting=1;fontFamily=Architects Daughter;fontSource=https%3A%2F%2Ffonts.googleapis.com%2Fcss%3Ffamily%3DArchitects%2BDaughter;" vertex="1" parent="1">
          <mxGeometry x="570" y="520" width="80" height="120" as="geometry" />
        </mxCell>
        <mxCell id="g3oZ5EdKqaqMo7e6JtPQ-21" value="" style="sketch=0;outlineConnect=0;fontColor=#232F3E;gradientColor=none;fillColor=#7AA116;strokeColor=none;dashed=0;verticalLabelPosition=bottom;verticalAlign=top;align=center;html=1;fontSize=12;fontStyle=0;aspect=fixed;pointerEvents=1;shape=mxgraph.aws4.lambda_function;hachureGap=4;jiggle=2;curveFitting=1;fontFamily=Architects Daughter;fontSource=https%3A%2F%2Ffonts.googleapis.com%2Fcss%3Ffamily%3DArchitects%2BDaughter;" vertex="1" parent="1">
          <mxGeometry x="330" y="390" width="78" height="78" as="geometry" />
        </mxCell>
        <mxCell id="g3oZ5EdKqaqMo7e6JtPQ-22" value="&lt;span&gt;&lt;font style=&quot;&quot;&gt;&lt;font style=&quot;color: light-dark(rgb(170, 183, 184), rgb(76, 0, 153));&quot; face=&quot;Times New Roman&quot;&gt;&lt;b&gt;Lambda Function&lt;/b&gt;&lt;/font&gt;&lt;/font&gt;&lt;/span&gt;" style="text;html=1;align=center;verticalAlign=middle;resizable=0;points=[];autosize=1;strokeColor=none;fillColor=none;fontFamily=Architects Daughter;fontSource=https%3A%2F%2Ffonts.googleapis.com%2Fcss%3Ffamily%3DArchitects%2BDaughter;" vertex="1" parent="1">
          <mxGeometry x="315" y="470" width="120" height="30" as="geometry" />
        </mxCell>
        <mxCell id="g3oZ5EdKqaqMo7e6JtPQ-23" value="" style="endArrow=classic;html=1;rounded=0;hachureGap=4;fontFamily=Architects Daughter;fontSource=https%3A%2F%2Ffonts.googleapis.com%2Fcss%3Ffamily%3DArchitects%2BDaughter;strokeColor=light-dark(#AAB7B8,#000000);flowAnimation=1;" edge="1" parent="1">
          <mxGeometry width="50" height="50" relative="1" as="geometry">
            <mxPoint x="218" y="440.5" as="sourcePoint" />
            <mxPoint x="328" y="440.5" as="targetPoint" />
          </mxGeometry>
        </mxCell>
        <mxCell id="g3oZ5EdKqaqMo7e6JtPQ-25" value="" style="endArrow=classic;html=1;rounded=0;hachureGap=4;fontFamily=Architects Daughter;fontSource=https%3A%2F%2Ffonts.googleapis.com%2Fcss%3Ffamily%3DArchitects%2BDaughter;strokeColor=light-dark(#AAB7B8,#000000);flowAnimation=1;" edge="1" parent="1">
          <mxGeometry width="50" height="50" relative="1" as="geometry">
            <mxPoint x="410" y="441" as="sourcePoint" />
            <mxPoint x="570" y="440.5" as="targetPoint" />
          </mxGeometry>
        </mxCell>
        <mxCell id="g3oZ5EdKqaqMo7e6JtPQ-26" value="" style="endArrow=classic;startArrow=classic;html=1;rounded=1;hachureGap=4;fontFamily=Architects Daughter;fontSource=https%3A%2F%2Ffonts.googleapis.com%2Fcss%3Ffamily%3DArchitects%2BDaughter;strokeColor=light-dark(#AAB7B8,#000000);strokeWidth=2;curved=0;flowAnimation=1;" edge="1" parent="1">
          <mxGeometry width="50" height="50" relative="1" as="geometry">
            <mxPoint x="560" y="560" as="sourcePoint" />
            <mxPoint x="560" y="310" as="targetPoint" />
            <Array as="points">
              <mxPoint x="460" y="560" />
              <mxPoint x="460" y="310" />
            </Array>
          </mxGeometry>
        </mxCell>
        <mxCell id="g3oZ5EdKqaqMo7e6JtPQ-27" value="" style="shape=image;verticalLabelPosition=bottom;labelBackgroundColor=default;verticalAlign=top;aspect=fixed;imageAspect=0;image=https://i.pcmag.com/imagery/articles/06mATErfji3m03V9lrFKklc-1.fit_lim.v1715949162.jpg;" vertex="1" parent="1">
          <mxGeometry x="273.61" y="750" width="186.39" height="104.84" as="geometry" />
        </mxCell>
        <mxCell id="g3oZ5EdKqaqMo7e6JtPQ-29" value="" style="shape=image;verticalLabelPosition=bottom;labelBackgroundColor=default;verticalAlign=top;aspect=fixed;imageAspect=0;image=https://logos-world.net/wp-content/uploads/2020/10/Slack-Logo.png;" vertex="1" parent="1">
          <mxGeometry x="273.61" y="670" width="177.78" height="100" as="geometry" />
        </mxCell>
        <mxCell id="g3oZ5EdKqaqMo7e6JtPQ-30" value="" style="endArrow=classic;html=1;rounded=0;hachureGap=4;fontFamily=Architects Daughter;fontSource=https%3A%2F%2Ffonts.googleapis.com%2Fcss%3Ffamily%3DArchitects%2BDaughter;strokeColor=light-dark(#AAB7B8,#000000);strokeWidth=2;flowAnimation=1;" edge="1" parent="1">
          <mxGeometry width="50" height="50" relative="1" as="geometry">
            <mxPoint x="360" y="500" as="sourcePoint" />
            <mxPoint x="360" y="680" as="targetPoint" />
          </mxGeometry>
        </mxCell>
        <mxCell id="g3oZ5EdKqaqMo7e6JtPQ-31" value="" style="outlineConnect=0;dashed=0;verticalLabelPosition=bottom;verticalAlign=top;align=center;html=1;shape=mxgraph.aws3.cloud_2;fillColor=#F58534;gradientColor=none;hachureGap=4;fontFamily=Architects Daughter;fontSource=https%3A%2F%2Ffonts.googleapis.com%2Fcss%3Ffamily%3DArchitects%2BDaughter;" vertex="1" parent="1">
          <mxGeometry x="111.99999999999999" y="250.5" width="29.61" height="29" as="geometry" />
        </mxCell>
        <mxCell id="g3oZ5EdKqaqMo7e6JtPQ-32" value="&lt;p&gt;&lt;font face=&quot;Times New Roman&quot;&gt;&lt;b style=&quot;&quot;&gt;&lt;font style=&quot;color: light-dark(rgb(170, 183, 184), rgb(0, 0, 0)); font-size: 14px;&quot;&gt;Using AWS lambda to send notifications for running and stoped AWS EC2 Instances for All&lt;/font&gt;&lt;/b&gt;&lt;/font&gt;&lt;/p&gt;&lt;p&gt;&lt;font face=&quot;Times New Roman&quot;&gt;&lt;b style=&quot;&quot;&gt;&lt;font style=&quot;color: light-dark(rgb(170, 183, 184), rgb(0, 0, 0)); font-size: 14px;&quot;&gt;AWS Regions, main moto is to save the cost&lt;/font&gt;&lt;/b&gt;&lt;/font&gt;&lt;/p&gt;" style="text;html=1;align=center;verticalAlign=middle;resizable=0;points=[];autosize=1;strokeColor=none;fillColor=none;fontFamily=Architects Daughter;fontSource=https%3A%2F%2Ffonts.googleapis.com%2Fcss%3Ffamily%3DArchitects%2BDaughter;" vertex="1" parent="1">
          <mxGeometry x="146" y="175" width="563" height="82" as="geometry" />
        </mxCell>
      </root>
    </mxGraphModel>
  </diagram>
</mxfile>
